<svg xmlns="http://www.w3.org/2000/svg" width="647" height="204"><path fill="#1C2B39" d="M267.464 3.967h-100.86c-11.855 0-17.33 5.574-17.33 17.657v164.716c0 12.086 5.475 17.66 17.33 17.66h100.86c11.861 0 17.334-5.574 17.334-17.66v-164.716c0-12.083-5.473-17.657-17.334-17.657zm10.757 167.381h-122.367v-144.811h122.367v144.811z"/><path fill="#1C2B39" d="M625.666.569h-261.999c-11.857 0-17.327 5.574-17.327 17.656v167.519c0 12.086 5.47 17.659 17.327 17.659h261.999c11.859 0 17.33-5.573 17.33-17.659v-167.518c0-12.082-5.471-17.657-17.33-17.657zm3.97 173.408h-268.689v-158.426h268.688v158.426z"/><path fill="#1C2B39" d="M76.148 26.377h-60.441c-7.108 0-10.39 3.355-10.39 10.632v133.95c0 7.275 3.281 10.633 10.39 10.633h60.441c7.108 0 10.387-3.357 10.387-10.633v-133.95c0-7.277-3.278-10.632-10.387-10.632zm5.451 130.245h-71.138v-107.31h71.138v107.31z"/><g fill="#fff"><path d="M217.036 196.586c5.332 0 9.663-4.336 9.663-9.667 0-5.327-4.331-9.666-9.663-9.666-5.33 0-9.664 4.339-9.664 9.666 0 5.331 4.334 9.667 9.664 9.667zM494.676 195.642c2.851 0 5.177-2.324 5.177-5.182 0-2.856-2.326-5.181-5.177-5.181-2.863 0-5.186 2.324-5.186 5.181s2.322 5.182 5.186 5.182zM45.927 176.637c3.914 0 7.097-3.185 7.097-7.099 0-3.915-3.183-7.099-7.097-7.099-3.916 0-7.098 3.184-7.098 7.099 0 3.914 3.182 7.099 7.098 7.099zM226.627 15.55c0 .784-.855 1.419-1.919 1.419h-15.345c-1.061 0-1.916-.635-1.916-1.419 0-.781.855-1.418 1.916-1.418h15.345c1.063 0 1.919.637 1.919 1.418z"/><circle cx="202.312" cy="15.551" r="1.417"/><path d="M53.349 39.432c0 .781-.659 1.42-1.481 1.42h-11.88c-.822 0-1.485-.639-1.485-1.42 0-.782.663-1.415 1.485-1.415h11.879c.822 0 1.482.632 1.482 1.415zM47.344 33.586c0 .779-.633 1.414-1.417 1.414s-1.416-.635-1.416-1.414c0-.784.632-1.419 1.416-1.419s1.417.635 1.417 1.419z"/></g><g opacity=".3" fill="#fff"><rect x="371.819" y="26.579" width="246.883" height="46.419"/><rect x="371.819" y="81.971" width="54.229" height="36.627"/><rect x="371.819" y="124.588" width="54.229" height="4.613"/><rect x="371.819" y="133.452" width="54.229" height="4.613"/><rect x="371.819" y="142.316" width="54.229" height="4.613"/><rect x="371.819" y="151.181" width="54.229" height="4.613"/><rect x="371.819" y="160.045" width="23.675" height="4.613"/><rect x="435.263" y="124.588" width="54.228" height="4.613"/><rect x="435.263" y="133.452" width="54.228" height="4.613"/><rect x="435.263" y="142.316" width="54.228" height="4.613"/><rect x="435.263" y="151.181" width="54.228" height="4.613"/><rect x="435.263" y="160.045" width="23.675" height="4.613"/><rect x="498.709" y="124.588" width="54.229" height="4.613"/><rect x="498.709" y="133.452" width="54.229" height="4.613"/><rect x="498.709" y="142.316" width="54.229" height="4.613"/><rect x="498.709" y="151.181" width="54.229" height="4.613"/><rect x="498.709" y="160.045" width="23.675" height="4.613"/><rect x="562.151" y="124.588" width="54.229" height="4.613"/><rect x="562.151" y="133.452" width="54.229" height="4.613"/><rect x="562.151" y="142.316" width="54.229" height="4.613"/><rect x="562.151" y="151.181" width="54.229" height="4.613"/><rect x="562.151" y="160.045" width="23.675" height="4.613"/><rect x="435.263" y="81.971" width="54.228" height="36.627"/><rect x="498.709" y="81.971" width="54.229" height="36.627"/><rect x="562.151" y="81.971" width="54.229" height="36.627"/></g><g opacity=".3" fill="#fff"><rect x="164.703" y="33.581" width="103.889" height="33.696"/><rect x="164.703" y="100.588" width="66.628" height="4.596"/><rect x="164.703" y="109.593" width="66.628" height="4.596"/><rect x="164.703" y="118.598" width="66.628" height="4.596"/><rect x="164.703" y="127.602" width="66.628" height="4.598"/><rect x="164.703" y="136.606" width="30.435" height="4.6"/><rect x="164.703" y="72.998" width="30.435" height="21.454"/><rect x="200.895" y="72.998" width="30.437" height="21.454"/><rect x="238.153" y="72.998" width="30.438" height="21.454"/><rect x="238.153" y="100.588" width="30.438" height="60.625"/></g><g opacity=".3" fill="#fff"><rect x="16.715" y="55.739" width="58.426" height="18.54"/><rect x="16.715" y="125.708" width="58.426" height="4.241"/><rect x="16.715" y="134.28" width="58.426" height="4.244"/><rect x="16.715" y="142.794" width="58.426" height="4.24"/><rect x="16.715" y="78.598" width="26.82" height="18.543"/><rect x="48.317" y="78.598" width="26.823" height="18.543"/><rect x="16.715" y="102.617" width="26.82" height="18.543"/><rect x="48.317" y="102.617" width="26.823" height="18.543"/></g></svg>